# xmcd
#
# Track frame offsets:
#	150
#	20983
#	40815
#	59079
#	85286
#	108142
#	123437
#	141832
#	162584
#	183253
#	198605
#	219204
#
# Disc length: 3126 seconds
#
# Revision: 2
# Processed by: cddbd v1.5.2PL0 Copyright (c) Steve Scherf et al.
# Submitted via: EZCDAudioConverter 8.0.2.1
#
DISCID=b00c340c
DTITLE=Various Artist - Ngày Cưới Em
DYEAR=2009
DGENRE=Indie - Alternative
TTITLE0=Đan Nguyên - Ngày Cưới Em
TTITLE1=Trường Khuê, Tâm Đoan - Nhà anh nhà em
TTITLE2=Như Quỳnh - Ước hẹn
TTITLE3=Y Phương - Tạ tình
TTITLE4=Đặng Thế Luân - Tà áo cưới
TTITLE5=Hồ Hoàng Yến - Bài tango cho em
TTITLE6=Anh Khoa, Phương Hồng Quế - Ngày hạnh phúc
TTITLE7=Băng Tâm - Tơ duyên
TTITLE8=Mỹ Huyền, Mạnh Đình - Thuyền hoa
TTITLE9=Y Phụng - Thiên đường ái ân
TTITLE10=Tường Nguyên - Nhẫn cỏ cho em
TTITLE11=Doan Doanh - Tình yêu ngọt ngào
EXTD=
EXTT0=
EXTT1=
EXTT2=
EXTT3=
EXTT4=
EXTT5=
EXTT6=
EXTT7=
EXTT8=
EXTT9=
EXTT10=
EXTT11=
PLAYORDER=
